<?xml version="1.0" encoding="UTF-8"?>
<!-- Generator: Adobe Illustrator 16.0.0, SVG Export Plug-In . SVG Version: 6.00 Build 0)  -->
<!DOCTYPE svg PUBLIC "-//W3C//DTD SVG 1.1//EN" "http://www.w3.org/Graphics/SVG/1.1/DTD/svg11.dtd">
<svg version="1.1" id="Ebene_1" xmlns="http://www.w3.org/2000/svg" xmlns:xlink="http://www.w3.org/1999/xlink" x="0px" y="0px" width="147.104px" height="179.702px" viewBox="0 0 147.104 179.702" enable-background="new 0 0 147.104 179.702" xml:space="preserve">
<g>
	<path fill-rule="evenodd" clip-rule="evenodd" fill="#030405" d="M66.568,0.05c1.956-0.003,3.913-0.006,5.87-0.009   c1.782,1.262,2.398,2.949,1.997,5.08c0.548-1.645-0.703-3.753,1.1-5.109c16.293,0.02,32.587,0.04,48.88,0.06   c1.497,1.113,0.825,2.632,0.703,4.17c0.625-1.451-0.003-3.173,1.422-4.206c2.563,0.004,5.128,0.009,7.691,0.014   c2.293,1.8,1.261,4.039,0.761,6.166c-0.391,1.659-1.795,3.16-0.678,5.015c0.901,1.333,2.13,2.354,3.264,3.466   c3.673,3.276,4.694,7.798,5.761,12.292c0.57,2.403,1.274,4.764,2.082,7.092c2.348,3.269,2.307,6.401-0.553,9.367   c-2.798,1.904-2.586,5.11-2.332,7.623c0.371,3.667-0.117,6.876-1.778,10.052c-0.781,1.494-0.138,2.524,1.302,3.181   c4.135,2.684,4.645,6.922,4.81,11.279c0.074,1.971,0.091,3.948-0.033,5.918c-0.888,7.337-3.938,13.697-8.903,19.116   c-2.726,2.975-5.866,5.445-9.96,6.282c-5.164,1.055-8.916,7.872-6.727,12.695c1.468,3.236,2.743,6.417,2.246,10.053   c-0.235,1.72,0.61,2.811,2.088,3.588c9.196,4.836,12.694,13.276,13.921,22.865c0.864,6.764,0.323,13.618,0.234,20.433   c-0.017,1.191-0.368,2.296-1.278,3.149c-1.237,0.003-2.476,0.007-3.713,0.011c-1.897-1.39-1.626-3.483-1.662-5.414   c-0.096-5.102-0.024-10.206-0.039-15.309c-0.008-2.483-0.264-4.913-1.016-7.303c-1.151-3.658-3.207-4.817-6.63-2.631   c-7.721,3.742-11.227,9.165-8.846,18.188c1.023,3.876,1.38,8.475-0.934,12.476c-0.691-0.002-1.382-0.005-2.073-0.007   c-2.647-4.537-0.822-9.772-2.266-14.52c-0.565-1.857-0.271-3.941-1.364-6.127c-2.807,3.449-5.606,6.64-8.834,9.404   c-1.013,0.868-2.083,1.897-3.34,2.107c-5.282,0.882-8.29,3.937-9.325,9.095c-0.967,0.009-1.933,0.018-2.9,0.027   c-2.154-2.398-1.268-5.402-1.529-8.144c-0.339-3.569-1.787-5.353-5.662-5.331c-10.807,0.061-21.677,0.752-32.283-2.253   c-2.46-0.697-4.114,0.643-5.51,2.497c-2.205,2.928-4.433,5.839-6.584,8.806c-1.404,1.937-3.072,3.485-5.268,4.448   c-0.756-0.001-1.513-0.003-2.27-0.006c-0.32-0.406-0.623-0.982-0.381-1.364c3.881-6.15,8.167-11.98,12.836-16.871   c-7.362-2.697-12.622-9.521-19.521-13.959c-2.215-1.187-3.447-0.085-4.274,1.857c-1.38,3.241-2.24,6.587-2.212,10.155   c0.038,4.986,0.043,9.974-0.014,14.96c-0.02,1.809,0.173,3.693-1.15,5.228c-1.061-0.006-2.122-0.012-3.182-0.018   c-0.003-8.159-0.112-16.319,0.021-24.475c0.128-7.794,4.344-13.388,10.306-17.867c1.599-1.201,3.434-2.11,3.811-4.347   c1.902-1.529,3.292-3.219,2.273-5.915c-0.215-0.569-0.251-1.54,0.087-1.935c5.532-6.456-1.314-11.664-1.745-17.5   c-0.065-0.882-0.442-2.284-1.686-2.021c-5.173,1.093-8.168-2.828-11.942-4.958C2.648,92.808-0.682,83.742,0.483,73.16   c0.44-4.001,1.5-7.642,5.835-8.958c1.901-0.578,2.521-1.412,1.772-3.19c-1.326-3.146-2.351-6.329-4.312-9.313   c-1.658-2.523-1.71-6.303-0.331-9.552c-0.524-0.969-0.435-2.018,0.066-2.87c1.264-2.152-0.372-2.696-1.738-3.44   c0.126-0.631,0.166-1.296,0.394-1.888c1.205-3.122,5.306-4.972,3.463-9.607c-0.491-1.235,1.828-4.312,3.563-5.569   c4.448-3.225,4.467-6.16,0.493-9.609C9.245,8.78,9.15,7.995,8.672,6.876c3.763,1.207,5.669,0.65,4.099-3.519   c-0.345-0.917,0.328-2.216,0.53-3.34c0.709,0.011,1.42,0.021,2.131,0.032c1.868,6.798,2.198,13.209-2.166,19.553   c-2.786,4.049-5.406,8.721-3.181,14.19c0.468,1.149,0.131,2.369-0.459,3.371C5.318,44.478,7.413,51.3,11.047,58.025   c-2.544-6.095-2.544-6.095,4.907-9.905c-1.662-1.133-6.195-0.021-3.456-4.641c0.586-0.988-0.732-0.638-1.196-0.672   c-4.271-0.323-3.156-2.348-1.405-4.488c1.159-1.417,2.581-2.598,3.825-3.938c1.111-1.196,2.783-1.801,3.558-3.348   c-0.717-1.201-1.776-0.626-2.687-0.589c-1.604,0.065-3.513,0.885-4.392-1.153c-0.711-1.65,0.824-2.725,1.646-3.913   c0.567-0.818,1.264-1.603,2.089-2.131c4.496-2.888,7.804-6.137,4.781-12.059c-0.498-0.976-0.235-2.445,0.872-3.15   c0.991-0.63,1.913,0.164,2.679,0.767c2.206,1.735,4.843,2.033,8.067,2.526c-2.403-3.644-3.983-7.181-2.748-11.265   C35.539,0.054,43.49,0.044,51.44,0.033c3.421,2.505,5.561,6.574,9.355,8.025C58.515,5.811,53.748,5.219,54.536,0   c2.974,0.013,5.948,0.027,8.922,0.04c3.406,1.447,5.521,4.281,7.29,6.704C70.434,4.243,66.247,3.588,66.568,0.05z"/>
	<path fill-rule="evenodd" clip-rule="evenodd" fill="#177037" d="M28.679,179.702c4.021-5.243,8.082-10.456,12.036-15.749   c1.086-1.454,2.198-2.557,4.101-1.918c11.071,3.716,22.537,3.056,33.889,2.67c5.25-0.178,6.627,2.203,6.764,6.525   c0.089,2.814,0.036,5.633,0.047,8.45C66.57,179.688,47.625,179.695,28.679,179.702z"/>
	<path fill-rule="evenodd" clip-rule="evenodd" fill="#585757" d="M27.588,0.065c1.164,4.37,0.992,9.292,5.438,12.49   c-4.732-0.446-9.557,0.447-13.017-4.417c-0.917,3.093,0.093,5.663,1.273,7.64c1.508,2.527,0.685,3.385-1.386,4.578   c-3.702,2.133-7.187,4.581-9.196,8.719c2.281,1.239,4.092-0.458,6.033-0.209c1.328,0.17,2.832-0.074,3.278,1.565   c0.437,1.603-1.144,1.82-2.073,2.307c-3.793,1.985-6.113,5.433-9.095,8.35c2.411,2.014,5.634-1.942,6.903,1.128   c0.801,1.936-2.964,1.506-3.538,3.315c1.765,2.037,4.371,0.849,6.861,1.802c-1.774,1.113-3.215,2.177-4.792,2.975   c-3.072,1.555-5.651,2.868-1.635,6.445c1.801,1.605-0.081,3.215-1.619,4.836c-3.752-8.418-7.992-16.413-2.296-25.43   c0.584-0.925,1.378-2.759-0.048-2.933c-4.192-0.511-1.753-2.411-0.972-3.79c1.092-1.928,3.228-3.443,1.351-6.15   c-0.298-0.431,0.683-2.368,1.516-2.862c5.574-3.309,4.65-8.798,4.888-13.891c0.101-2.156-0.015-4.321-0.032-6.482   C19.483,0.054,23.536,0.06,27.588,0.065z"/>
	<path fill-rule="evenodd" clip-rule="evenodd" fill="#177037" d="M20.578,146.745c6.46,4.812,12.271,10.476,19.239,14.574   c-4.506,6.178-8.956,12.277-13.406,18.377c-2.312-0.003-4.623-0.006-6.934-0.009C15.271,172.932,15.944,152.798,20.578,146.745z"/>
	<path fill-rule="evenodd" clip-rule="evenodd" fill="#585758" d="M88.416,179.653c-0.721-5.205,0.088-8.59,6.655-9.401   c5.473-0.676,8.57-5.974,12.065-9.967c1.174-1.34,1.877-3.116,4.008-3.755c1.604,7.715,2.651,15.366,2.401,23.164   C105.168,179.68,96.792,179.667,88.416,179.653z"/>
	<path fill-rule="evenodd" clip-rule="evenodd" fill="#177037" d="M115.617,179.701c0.398-6.786-0.307-13.518-1.188-20.219   c-0.473-3.594,0.537-5.879,4-7.379c2.22-0.961,4.096-2.719,6.125-4.12c3.083,5.012,4.377,26.677,1.894,31.699   C122.837,179.688,119.228,179.695,115.617,179.701z"/>
	<path fill-rule="evenodd" clip-rule="evenodd" fill="#049445" d="M126.448,179.682c0.091-10.61-1.008-21.148-1.894-31.699   c4.666-3.785,6.752-3.271,8.627,2.102c2.302,6.592,1.284,13.43,1.493,20.174c0.098,3.143,0.049,6.29,0.067,9.436   C131.978,179.689,129.213,179.686,126.448,179.682z"/>
	<path fill-rule="evenodd" clip-rule="evenodd" fill="#049244" d="M20.578,146.745c-3.229,10.885-2.379,21.906-1.1,32.942   c-2.596,0.005-5.19,0.01-7.785,0.015c0.006-7.104,0.098-14.208-0.019-21.309c-0.059-3.557,0.834-6.839,2.118-10.067   C15.282,144.584,17.264,142.758,20.578,146.745z"/>
	<path fill-rule="evenodd" clip-rule="evenodd" fill="#525252" d="M54.536,0c1.369,4.746,6.011,6.322,9.756,9.98   C57.864,8.504,53.854,5.308,51.44,0.033C52.472,0.022,53.504,0.011,54.536,0z"/>
	<path fill-rule="evenodd" clip-rule="evenodd" fill="#535252" d="M66.568,0.05c2.165,3.121,6.143,5.175,5.812,10.407   c-3.183-3.715-6.053-7.065-8.923-10.417C64.495,0.043,65.531,0.047,66.568,0.05z"/>
	<path fill-rule="evenodd" clip-rule="evenodd" fill="#504F4F" d="M75.535,0.012c0,1.955,0,3.909,0,6.466   c-2.405-1.986-2.167-4.493-3.097-6.437C73.47,0.031,74.503,0.021,75.535,0.012z"/>
	<path fill-rule="evenodd" clip-rule="evenodd" fill="#525252" d="M126.54,0.036c-0.07,1.72,0.178,3.535-2.125,5.414   c0-2.164,0-3.771,0-5.378C125.123,0.06,125.832,0.048,126.54,0.036z"/>
	<path fill-rule="evenodd" clip-rule="evenodd" fill="#EDBCA6" d="M45.51,16.869c7.948-1.163,15.796-2.867,23.529,1.723   c1.615,0.958,5.254-0.348,7.71-0.542c4.878-0.384,9.827-0.84,14.754-1.117c1.986-0.111,3.981-0.044,5.973-0.058   c2.553,1.146,4.16,3.149,5.287,5.655c4.082,9.073,6.954,18.596,10.369,27.917c0.621,1.693,0.923,3.575-0.618,5.115   c-3.882-2.302-7.855-3.074-12.35-1.643c-4.801,1.528-9.762,2.552-14.653,3.796c-2.037-1.076-3.875-1.38-4.955,1.271   c-3.495,4.644-8.344,2.982-12.74,2.456c-6.103-0.731-11.454-3.819-17.063-6.137c-4.876-2.015-9.515-5.455-15.342-4.049   c-0.633-0.838-1.358-1.623-1.609-2.691c1.581-9.785,4.934-19.061,8.217-28.355C42.615,18.527,44.111,17.737,45.51,16.869z"/>
	<path fill-rule="evenodd" clip-rule="evenodd" fill="#8F7164" d="M101.519,126.976c-4.235,8.229-11.86,10.58-20.221,11.625   c-0.985,0.123-2.021,0.196-2.99,0.033c-2.096-0.353-4.52-0.438-4.72-3.403c-0.232-3.423,3.047-1.511,4.418-2.81   c-3.477-1.861-6.942-1.801-11.909-0.885c2.579,1.5,5.478,1.48,4.396,4.382c-0.904,2.424-2.812,3.036-5.141,3.117   c-9.276,0.323-17.079-2.284-21.927-10.872c-5.088-7.479-10.087-15.008-11.36-24.26c-0.271-1.967-1.423-4.29,1.445-5.486   c6.091,1.503,12.043,1.068,17.929-1.106c3.309-1.222,6.843-0.739,10.273-1.007c3.712-0.163,5.533,3.861,9.069,4.097   c3.411,0.027,5.579-2.954,8.714-3.603c2.675-0.607,5.33-0.227,7.884,0.459c7.451,2.001,14.978,2.599,22.631,1.674   c3.191,1.124,2.16,3.511,1.788,5.78C110.427,113.089,106.387,120.22,101.519,126.976z"/>
	<path fill-rule="evenodd" clip-rule="evenodd" fill="#585858" d="M88.465,145.871c8.06-1.791,14.518-7.572,23.343-9.773   c-2.019,5.142-1.898,10.134-5.285,13.9c-5.259,5.472-11.657,8.708-19.165,9.769c-7.646-0.191-15.184,1.437-22.863,1.163   c-8.978-0.321-17.458-1.309-26.011-5.098c-7.079-3.136-12.161-8.222-18.075-12.524c-1.745-1.27-2.071-2.671-0.07-3.821   c3.073-1.765,4.044-6.396,9.231-6.877c-4.751,4.537-4.759,5.562,0.473,8.164c6.211,3.09,12.599,5.895,19.754,6.085   c3.337,0.089,6.259,2.252,9.674,2.032c6.284-0.865,12.631-0.017,18.915-0.697c3.175-0.532,6.214-1.623,9.339-2.374   C87.973,145.835,88.219,145.853,88.465,145.871z"/>
	<path fill-rule="evenodd" clip-rule="evenodd" fill="#EDBCA6" d="M110.521,99.88c-8.23,2.756-16.195,0.324-24.165-1.351   c-2.615-0.549-5.178-0.757-7.809-0.563c-3.903,0.048-7.669,3.505-11.703,0.477c-2.635-3.88-0.176-6.865,1.744-9.945   c0.554-0.356,1.176-0.555,1.806-0.755c1.188-0.377,2.836-0.291,2.719-2.197c-0.052-0.849-0.608-1.534-1.442-1.849   c-1.459-0.55-2.549,0.151-3.502,1.155c-1.994,2.102-2.835,4.787-3.697,7.451c-0.583,1.597-1.27,3.151-2.074,4.654   c-7.34,1.3-14.669,2.669-22.027,3.865c-2.521,0.41-4.878-0.483-7.016-1.865c-5.38-3.533-7.761-9.513-5.764-14.476   c5.036,5.476,11.492,7.51,18.698,7.582c11.014,0.11,16.92-3.971,20.739-14.217c0.23-0.618,0.341-1.28,0.568-1.899   c0.939-2.563,1.193-5.545,5.216-5.472c3.786,0.068,3.923,2.842,4.757,5.281c4.315,12.624,11.555,17.49,24.247,16.237   c3.979-0.393,7.628-2.037,11.388-3.249c2.493-0.394,2.073,1.485,1.982,2.783c-0.124,1.771-0.865,3.458-1.033,5.245   C113.855,98.871,112.212,99.404,110.521,99.88z"/>
	<path fill-rule="evenodd" clip-rule="evenodd" fill="#FBD8C5" d="M112.515,55.562c-0.423-7.901-4.508-14.688-6.821-22.007   c-1.869-5.914-3.799-11.952-8.217-16.679c5.668-1.264,10.806,0.795,15.895,2.741c1.623,0.621,4.28,2.729,3.791,3.434   c-2.936,4.219,1.623,8.088,0.115,12.061c-0.161,0.423-0.239,1.247-0.027,1.387c3.693,2.439,1.437,6.866,3.353,9.876   c0.525,0.824,1.378,1.858,0.494,2.699c-2.581,2.455-2.549,5.362-1.287,8.904C116.962,57.033,114.738,56.297,112.515,55.562z"/>
	<path fill-rule="evenodd" clip-rule="evenodd" fill="#FBD8C5" d="M45.51,16.869c-5.077,7.366-5.818,16.319-8.901,24.417   c-0.928,2.439-1.418,5.046-2.11,7.575c-2.165,3.311-5.783,4.018-9.181,5.123c-0.232-0.447-0.191-0.868,0.12-1.262   c-3.353-3.561-1.061-7.803-0.634-11.377c0.651-5.452,5.442-10.081,3.893-16.286c-0.119-0.475,0.818-1.548,1.482-1.829   C35.272,21.069,39.924,17.833,45.51,16.869z"/>
	<path fill-rule="evenodd" clip-rule="evenodd" fill="#978177" d="M110.521,99.88c0.788-1.179,2.563-1.431,2.875-3.057   c1.337-5.085,4.074-9.667,5.32-14.784c1.444-3.141,2.907-6.274,4.321-9.428c0.521-1.165,1.186-2.094,2.596-1.56   c1.242,0.471,0.933,1.666,0.721,2.551c-2.924,12.19-4.633,24.649-8.156,36.706c-0.58,1.984-1.814,3.495-3.323,4.832   c-4.454,3.944-8.905,7.891-13.357,11.837c-0.157-1.558,0.341-2.842,1.314-4.097c4.662-6.003,6.207-13.301,8.317-20.362   C111.458,101.491,111.488,100.579,110.521,99.88z"/>
	<path fill-rule="evenodd" clip-rule="evenodd" fill="#585757" d="M60.409,147.938c-9.886-1.78-18.425-6.322-26.042-12.735   c-1.698-1.429-3.001-3.045-2.832-5.519c0.102-1.489,1.095-1.941,2.148-2.409c1.342-0.597,1.486,0.673,2.147,1.335   c9.38,9.376,20.697,15.978,33.929,14.782c8.588-0.776,17.802-1.096,26.647-6.085c-2.085,4.452-6.408,5.176-7.942,8.564l0.053-0.035   c-3.742,1.612-7.646,2.588-11.7,2.998C71.354,148.393,65.789,149.859,60.409,147.938z"/>
	<path fill-rule="evenodd" clip-rule="evenodd" fill="#978177" d="M27.591,84.48c-0.389,5.745,2.721,10.097,5.764,14.476   c-0.75,5.021,0.927,9.553,2.723,14.1c2.065,5.229,5.966,9.553,7.347,15.106c-4.875-4.267-8.846-9.461-14.092-13.383   c-2.847-2.128-2.944-5.894-3.622-9.071c-2.074-9.722-3.419-19.597-6.119-29.193c-0.267-0.947-0.131-2.006-0.385-2.958   c-0.312-1.171-0.041-2.046,1.077-2.387c1.276-0.389,1.699,0.697,2.103,1.599C24.134,76.667,25.858,80.575,27.591,84.48z"/>
	<path fill-rule="evenodd" clip-rule="evenodd" fill="#575757" d="M126.453,12.901c1.903-1.357,3.31-0.976,5.256,0.492   c6.45,4.861,7.159,12.35,9.703,19.107c1.672,4.438,0.324,7.239-2.875,9.867c-0.564,0.463-2.121,0.833-1.268,1.567   c3.397,2.926,0.14,6.761,1.751,10.253c1.447,3.137-2.237,6.499-3.707,11.049c-0.742-2.899-1.172-4.311-0.745-6.408   c0.433-2.127-2.739-1.39-4.35-2.566c1.037-0.293,1.886-0.512,2.719-0.776c0.944-0.299,1.875-0.639,3.147-1.076   c-1.791-2.018-3.491-3.933-5.342-6.018c4.398,0.327,5.085-0.14,3.429-3.438c-1.24-2.471,0.653-5.19-1.666-7.491   c-1.937-1.922-3.034-4.689-4.566-7.185c3.342-1.067,4.654,2.147,7.442,3.254c-0.652-5.178-3.44-8.161-7.875-10.438   c2.81-0.15,5.62-0.301,8.979-0.481c-2.988-4.569-7.433-3.387-11.239-3.915c0.442-2.048,0.855-3.959,1.269-5.871L126.453,12.901z"/>
	<path fill-rule="evenodd" clip-rule="evenodd" fill="#EDBCA7" d="M63.359,67.942c1.253,8.385-1.678,15.558-7.697,18.84   c-5.748,3.134-17.553,1.707-22.241-2.69c-1.094-3.976,1.683-5.16,4.529-6.3c1.48-0.279,2.996-0.295,4.484-0.533   c2.334,0.23,4.673,0.257,7.012-0.012c4.486,0.995,7.586-0.317,8.586-5.143c0.48-1.273,2.014,1.443,2.531-0.771   C60.878,69.99,61.086,67.941,63.359,67.942z"/>
	<path fill-rule="evenodd" clip-rule="evenodd" fill="#ECBCA6" d="M112.486,83.879c-6.289,6.115-14.147,5.309-21.291,3.364   c-7.588-2.064-8.814-9.433-9.604-16.335c2.379-0.502,3.291,1.441,4.592,2.739c2.161,4.078,5.723,4.4,9.702,3.602   c1.887,0.153,3.767,0.376,5.666,0.299c2.191,0.137,4.368-0.321,6.56-0.16C110.778,78.734,111.781,81.207,112.486,83.879z"/>
	<path fill-rule="evenodd" clip-rule="evenodd" fill="#585757" d="M106.489,150.867c2.658-0.316,4.456-2.023,6.249-3.788   c2.366-2.33,4.618-4.827,7.235-6.839c5.583-4.292,5.666-4.184,9.559,1.634c-11.61,7.795-23.396,15.325-37.069,19.132   c-0.612,0.261-1.347,0.559-1.754-0.125c-0.763-1.279,0.411-1.824,1.218-2.1C97.238,156.967,101.427,153.116,106.489,150.867z"/>
	<path fill-rule="evenodd" clip-rule="evenodd" fill="#F9D5C3" d="M112.486,83.879c-2.425-1.278-2.69-3.994-4.003-6.012   c-0.701-2.692,2.674-3.711,2.519-6.178c0.653-1.652,0.47-3.297-0.043-4.943c-0.094-0.433-0.142-0.87-0.177-1.31   c-1.641-5.276,1.746-4.227,4.693-3.731c2.125,0.563,3.45,1.708,3.39,4.137C118.696,72.559,117.564,78.91,112.486,83.879z"/>
	<path fill-rule="evenodd" clip-rule="evenodd" fill="#F6D3C1" d="M38.52,78.841c-2.876,0.608-4.557,2.377-5.099,5.251   c-5.426-4.759-6.279-11.284-6.687-17.876c-0.244-3.945,3-4.099,5.772-4.557c2.342-0.548,4.119-0.522,2.533,2.646   c-0.435,0.868-0.7,1.78-0.993,2.688c-0.505,1.55-1.572,3.019-0.656,4.765C34.213,74.764,38.167,75.504,38.52,78.841z"/>
	<path fill-rule="evenodd" clip-rule="evenodd" fill="#2A211E" d="M126.404,96.899c0.971-0.337,1.942-0.674,2.913-1.011   c3.552-2.166,4.049-5.409,3.086-9.075c-0.359-1.365-0.832,0.145-1.271,0.079c-0.262,0.409-0.523,0.817-0.784,1.226   c-2.178-0.064-3.861-0.552-2.861-3.338l-0.05,0.157c1.604-4.387,1.618-9.374,5.056-13.07c3.139-3.374,5.486-3.559,8.446-0.545   c0.071,0.817-0.209,1.459-0.939,1.873c-0.934,0.421-2.87,0.057-2.467,1.627c0.655,2.552,0.074,3.704-2.564,3.894   c-0.862,0.062-1.841,0.958-1.372,1.62c1.844,2.602,1.699,6.476,5.123,8.046c0.706,0.285,1.207,0.674,0.798,1.531l0.037-0.099   c-1.561,2.669-3.256,5.322-5.614,7.276C131.601,99.028,128.805,100.841,126.404,96.899z"/>
	<path fill-rule="evenodd" clip-rule="evenodd" fill="#C38B7C" d="M85.346,73.751c-1.251-0.948-2.503-1.896-3.755-2.843   c0.225-6.031,3.352-8.225,11.24-7.824c-0.772,1.449-2.896,0.806-3.687,3.103c6.031-2.979,12.17-3.273,18.342-3.326   c2.463-0.445,3.907,0.456,4.058,3.068l0.03-0.054c-2.854,1.607-5.833-0.068-8.749,0.333c-4.999,0.688-10.396,0.09-14.091,4.67   C87.87,72.148,86.942,73.346,85.346,73.751z"/>
	<path fill-rule="evenodd" clip-rule="evenodd" fill="#C38B7B" d="M63.359,67.942c-0.677,1.402-1.367,2.798-2.028,4.208   c-1.07,2.282-1.906,0.083-2.845-0.137c-0.812,0.199-1.226-0.302-1.595-0.894c-2.52-3.716-6.715-3.602-10.443-4.562   c-2.78-0.658-5.638-0.027-8.41-0.539c-1.076-0.199-2.66-0.341-2.386-1.875c0.24-1.341,1.653-1.345,2.852-1.168   c5.529-0.736,10.921,1.361,16.616,0.411C57.836,62.933,62.312,63.394,63.359,67.942z"/>
	<path fill-rule="evenodd" clip-rule="evenodd" fill="#281F1C" d="M17.193,82.884c-0.302,0.421-0.603,0.842-0.905,1.262   c-4.464,3.563-4.329,7.641,0.39,11.744c0.974,0.342,1.947,0.684,2.921,1.025c-1.776,3.658-4.306,1.978-6.74,0.955   c-2.454-2.405-4.852-4.857-5.888-8.275c0.112-0.473,0.391-0.815,0.82-1.023c2.847-1.888,2.567-5.636,4.688-7.969   c0.133-0.146,0.022-0.47,0.005-0.471c-4.41-0.202-2.525-6.262-6.446-6.914c-0.748-0.383-1.049-1.012-1.011-1.83   c1.662-3.497,4.188-2.618,6.583-1.113c2.825,1.776,4.073,4.672,4.805,7.812C16.104,79.776,18.332,81.058,17.193,82.884z"/>
	<path fill-rule="evenodd" clip-rule="evenodd" fill="#F1CFBD" d="M139.518,89.913c-0.341-0.369-0.683-0.738-1.023-1.107   c-1.089-2.893,0.563-5.477,0.908-8.209c0.837-2.875,0.939-5.845,1.12-8.803c-1.857-3.788-4.157-1.525-5.975-0.182   c-2.781,2.056-3.749,5.36-4.924,8.476c-0.624,1.655-0.731,3.564-2.187,4.85c0.146-6.418,1.174-12.488,6.881-16.577   c3.586-2.57,6.468-1.883,7.533,2.29C143.542,77.27,143.507,83.883,139.518,89.913z"/>
	<path fill-rule="evenodd" clip-rule="evenodd" fill="#F0CEBC" d="M15.823,78.732c-0.883-2.929-2.248-5.66-4.757-7.422   c-1.752-1.23-4.053-3.101-5.602,0.488c0.161,2.969,0.309,5.939,1.123,8.825c0.326,2.743,2.04,5.335,0.917,8.237l0.014,0.016   c-0.659,0.584-1.309,0.546-1.952-0.028c-2.123-4.446-2.66-9.13-2.223-13.996c0.268-2.981,0.159-6.451,3.472-7.556   c3.508-1.169,5.713,1.748,7.898,4.018c1.468,1.526,2.073,3.335,1.848,5.433C16.951,77.644,17.477,78.592,15.823,78.732z"/>
	<path fill-rule="evenodd" clip-rule="evenodd" fill="#EDCBBA" d="M126.404,96.899c3.624,2.032,6.377,0.894,8.866-2.148   c1.373-1.679,2.023-4.025,4.284-4.937c-1.694,5.711-5.661,9.424-10.688,12.233c-1.728,0.966-3.865,1.624-4.851-0.224   C122.938,99.801,123.761,97.654,126.404,96.899z"/>
	<path fill-rule="evenodd" clip-rule="evenodd" fill="#555555" d="M126.516,12.83c-3.813,1.232-6.061,6.056-11.383,4.316   c7.264-2.605,10.325-10.025,16.986-13.943c-0.028,2.621-1.231,4.324-3.09,5.353c-1.835,1.017-2.753,2.28-2.576,4.346   C126.453,12.901,126.516,12.83,126.516,12.83z"/>
	<path fill-rule="evenodd" clip-rule="evenodd" fill="#F6D4C2" d="M12.504,96.857c2.355,1.2,4.716,1.617,7.095,0.059   c2.292,1.236,2.847,3.535,1.65,5.304c-1.219,1.804-3.391,0.357-4.821-0.495c-1.781-1.06-3.266-2.617-4.877-3.96   C11.223,96.785,11.6,96.544,12.504,96.857z"/>
	<path fill-rule="evenodd" clip-rule="evenodd" fill="#323232" d="M60.409,147.938c5.73,0.004,11.459,0.008,17.189,0.012   c0.489,0.622,1.492,0.179,1.919,0.928c-6.681,1.599-13.362,1.73-20.045,0.013C59.784,148.573,60.097,148.256,60.409,147.938z"/>
	<path fill-rule="evenodd" clip-rule="evenodd" fill="#1B1B1B" d="M106.489,150.867c-4.238,3.368-8.725,6.323-13.722,8.472   c-0.602,0.259-2.966,0.629-0.304,1.667c-2.485,2.818-3.292-1.279-5.104-1.238c6.783-2.48,12.84-6.387,19.163-9.771   C106.509,150.288,106.498,150.577,106.489,150.867z"/>
	<path fill-rule="evenodd" clip-rule="evenodd" fill="#EECCBB" d="M127.487,84.78c0.953,1.113,1.907,2.226,2.861,3.338   c0.15,1.316,0.378,2.62-0.519,3.82c-1.044,1.398-1.771,4.042-3.58,3.479c-2.255-0.701-0.806-3.182-0.345-4.646   C126.529,88.79,125.61,86.395,127.487,84.78z"/>
	<path fill-rule="evenodd" clip-rule="evenodd" fill="#F2CFBD" d="M118.717,82.039c0.589,5.778-2.626,10.187-5.32,14.784   c-1.595-1.582,0.175-2.944,0.397-4.363c0.219-1.397,1.192-2.704-0.591-3.716C114.953,86.436,117.563,84.836,118.717,82.039z"/>
	<path fill-rule="evenodd" clip-rule="evenodd" fill="#EFCDBC" d="M18.398,85.888c1.486,3.05,2.115,6.231,1.829,9.853   c-5.506-3.765-5.794-5.042-2.521-9.836C17.925,85.407,18.156,85.401,18.398,85.888z"/>
	<path fill-rule="evenodd" clip-rule="evenodd" fill="#2C1E1B" d="M38.504,62.975c-0.849,0.424-1.697,0.847-2.941,1.468   c4.228,1.306,8.47-0.589,12.254,1.259c-4.587,3.004-9.538,1.427-14.386,1.142c0.062-1.068-0.872-2.157,0.24-3.211   c2.323-2.202-0.473-1.488-1.164-1.974C36.968,60.215,37.985,60.439,38.504,62.975z"/>
	<path fill-rule="evenodd" clip-rule="evenodd" fill="#068F43" d="M113.441,120.811c5.078,0.916,5.826,2.573,4.528,10.061   c-1.546,0.16-1.412-1.655-2.447-2.086C113.874,126.375,113.451,123.647,113.441,120.811z"/>
	<path fill-rule="evenodd" clip-rule="evenodd" fill="#544741" d="M25.457,53.724c2.54-2.503,5.984-3.323,9.042-4.862   c1.289,0.423,0.654,1.579,0.913,2.394c-2.312,1.55-4.624,3.101-6.936,4.65C26.286,56.818,24.578,57.061,25.457,53.724z"/>
	<path fill-rule="evenodd" clip-rule="evenodd" fill="#4E4E4E" d="M40.588,5.869c4.145,2.315,8.29,4.631,13.357,7.461   C47.299,13.395,43.655,10.161,40.588,5.869z"/>
	<path fill-rule="evenodd" clip-rule="evenodd" fill="#BC8576" d="M16.678,95.891c-5.778-0.564-3.927-5.265-4.248-8.448   c-0.193-1.918,0.346-4.826,3.858-3.296C13.477,88.159,13.436,92.079,16.678,95.891z"/>
	<path fill-rule="evenodd" clip-rule="evenodd" fill="#BD8677" d="M131.133,86.892c-0.08-1.179-1.882-2.149-0.309-3.65   c3.854,1.919,3.166,5.336,2.457,8.432c-0.438,1.913-0.28,5.073-3.964,4.214C130.973,93.102,133.189,90.428,131.133,86.892z"/>
	<path fill-rule="evenodd" clip-rule="evenodd" fill="#352521" d="M111.544,65.93c-0.893-1.631-2.359-2.502-4.058-3.068   c-1.944-2.088-4.816-0.108-7.983-2.174c6.044,0.704,11.06-1.025,15.97,1.019c-1.398,0-2.796,0-3.976,0   C110.273,63.369,114.726,64.395,111.544,65.93z"/>
	<path fill-rule="evenodd" clip-rule="evenodd" fill="#167037" d="M113.441,120.811c2.308,2.237,2.121,5.125,2.081,7.974   c-1.245-0.069-3.708,0.089-3.445-0.617C112.982,125.74,109.753,122.558,113.441,120.811z"/>
	<path fill-rule="evenodd" clip-rule="evenodd" fill="#515151" d="M92.398,11.622c3.683-2.396,5.217-5.532,6.646-9.282   C99.876,9.405,99.125,10.502,92.398,11.622z"/>
	<path fill-rule="evenodd" clip-rule="evenodd" fill="#09853F" d="M28.887,126.652c-1.018-2.728,0.15-4.503,2.224-5.483   c1.167-0.552,2.536,0.896,2.514,1.801C33.553,125.915,30.507,125.308,28.887,126.652z"/>
	<path fill-rule="evenodd" clip-rule="evenodd" fill="#555454" d="M70.487,66.497c0.167,1.521-0.531,2.762-2.057,2.684   c-1.594-0.081-1.599-1.792-1.817-3.001c-0.235-1.301,0.2-2.239,1.771-2.283C70.235,63.845,70.537,64.99,70.487,66.497z"/>
	<path fill-rule="evenodd" clip-rule="evenodd" fill="#C98F7F" d="M80.558,58.986c0.009-1.578-0.641-3.823,1.124-4.331   c1.896-0.546,2.747,1.74,3.831,3.06C84.013,58.733,82.324,59.008,80.558,58.986z"/>
	<path fill-rule="evenodd" clip-rule="evenodd" fill="#D7B8A8" d="M12.504,96.857c-0.318,0.303-0.636,0.605-0.954,0.908   c-2.782-2.444-4.875-5.352-5.985-8.917c0.651,0.009,1.301,0.019,1.952,0.028C7.849,92.368,10.95,94.129,12.504,96.857z"/>
	<path fill-rule="evenodd" clip-rule="evenodd" fill="#F4D1BF" d="M25.457,53.724c0.153,1.909,1.427,2.266,3.02,2.182   c0.057,0.27,0.119,0.539,0.187,0.806c0.284,0.282,0.349,0.519,0.196,0.711c-0.135,0.169-0.266,0.254-0.395,0.254   c-1.776,0.078-3.552,0.156-5.409,0.238c-0.12-2.298,1.291-3.671,2.383-5.192C25.445,53.056,25.451,53.39,25.457,53.724z"/>
	<path fill-rule="evenodd" clip-rule="evenodd" fill="#565656" d="M20.295,63.813c0.18,1.133-0.188,1.994-1.197,1.709   c-1.813-0.513-1.581-2.278-1.799-3.706c-0.119-0.777-0.448-1.937,0.82-1.761C20.355,60.365,19.309,62.807,20.295,63.813z"/>
	<path fill-rule="evenodd" clip-rule="evenodd" fill="#C59182" d="M28.465,57.677c0.066-0.322,0.132-0.644,0.198-0.966   c3.994,0,7.987,0,11.979,0c-0.006,0.322-0.012,0.644-0.018,0.965C36.571,57.677,32.518,57.677,28.465,57.677z"/>
	<path fill-rule="evenodd" clip-rule="evenodd" fill="#D1B3A4" d="M18.398,85.888l-0.345,0.062l-0.347-0.045   c-0.171-1.006-0.343-2.013-0.514-3.02c-0.457-1.384-0.913-2.768-1.37-4.152c0.246-0.662,0.492-1.324,0.738-1.986   C17.928,79.641,18.598,82.677,18.398,85.888z"/>
	<path fill-rule="evenodd" clip-rule="evenodd" fill="#E9B8A3" d="M67.624,125.767c0.858,1.762,1.465,3.86-1.62,2.587   c-7.545-3.116-14.012-7.642-17.341-15.556c-0.902-2.145-0.229-2.773,2.107-2.934c14.294-0.981,28.562-2.312,42.921-2.132   c3.272,0.041,4.457,0.625,2.475,3.779c-2.033,3.236-3.868,6.604-6.019,9.758c-3.234,4.742-7.65,7.29-13.593,6.512   c0.301-3.219,4.486-2.465,5.34-5.471c-6.184,0.5-12.251,1.508-18.343,1.811C64.836,124.795,66.374,124.924,67.624,125.767z"/>
	<path fill-rule="evenodd" clip-rule="evenodd" fill="#CB9181" d="M67.624,125.767c-3.893,1.864-5.402-1.276-8.438-3.978   c8.969,2.157,16.635-0.87,24.575-0.911c-0.341,4.835-4.616,4.961-7.207,6.903C73.119,129.145,71.17,123.917,67.624,125.767z"/>
	<path fill-rule="evenodd" clip-rule="evenodd" fill="#231916" d="M69.289,88.73c-0.104,3.13-4.287,5.47-1.764,9.109   c0.998,1.298,3.632,1.435,2.842,4.002c-3.185-0.766-5.212-3.421-7.969-4.884c-1.189-1.786,0.504-2.852,1.049-4.205   c1.503-1.688,1.936-4.154,3.93-5.473C68.634,86.447,68.904,86.672,69.289,88.73z"/>
	<path fill-rule="evenodd" clip-rule="evenodd" fill="#CA907F" d="M70.367,101.841c-0.947-1.334-1.895-2.668-2.842-4.002   c2.185,0.597,4.345,1.435,6.491-0.221c1.555-1.2,3.083-0.608,4.531,0.347C76.06,99.763,73.869,102.185,70.367,101.841z"/>
	<path fill-rule="evenodd" clip-rule="evenodd" fill="#030405" d="M79.518,148.877c-0.64-0.31-1.28-0.619-1.92-0.928   c3.641-0.704,7.281-1.408,10.92-2.113C85.948,148.122,82.812,148.733,79.518,148.877z"/>
	<path fill-rule="evenodd" clip-rule="evenodd" fill="#C98F7F" d="M69.289,88.73c-0.087-2.176-1.028-0.887-1.583-0.33   c-1.431,1.438-2.106,3.613-4.259,4.352c0.149-2.876,1.384-5.297,2.888-7.707c1.477-2.367,3.304-3.883,6.051-2.915   c1.805,0.637,2.959,2.976,2.61,4.377C74.323,89.213,71.583,88.902,69.289,88.73z"/>
	<path fill-rule="evenodd" clip-rule="evenodd" fill="#FDFDFD" d="M38.52,78.841c-2.348-2.166-5.594-3.564-6.189-7.23   c0.301-2.602,1.934-3.615,4.371-3.674c3.114,0.425,2.768,3.187,3.523,5.207c0.456,1.84,2.241,3.029,2.469,4.984   C41.465,79.316,39.936,78.745,38.52,78.841z"/>
	<path fill-rule="evenodd" clip-rule="evenodd" fill="#FCFCFC" d="M57.57,71.035c0.305,0.326,0.61,0.651,0.916,0.977   c0.068,6.341-2.412,7.991-9.192,6.116c1.37-2.936,2.608-5.938,4.323-8.708C55.457,68.681,56.718,69.358,57.57,71.035z"/>
	<path fill-rule="evenodd" clip-rule="evenodd" fill="#294066" d="M53.588,69.956c0.268,3.614-1.06,6.39-4.292,8.17   c-2.205,0.813-4.407,0.807-6.605,0.001c-1.496-1.052-3.243-1.896-3.428-4.06c0.167-0.153,0.335-0.307,0.502-0.462   c1.943-0.075,3.194,1.69,5.052,1.887c2.699,0.284,4.696-0.21,4.337-3.595c0.434-1.211,1.241-2.059,2.433-2.541   C52.358,69.205,53.052,69.319,53.588,69.956z"/>
	<path fill-rule="evenodd" clip-rule="evenodd" fill="#FCFBFC" d="M111.697,71.733c1.145,3.207-2.469,3.918-3.215,6.134   c-2.289,1.254-4.759,1.087-7.229,0.915c-0.277-0.96,0.224-1.674,0.746-2.384c0.688-0.827,1.468-1.575,2.114-2.44   c1.958-1.507-0.343-4.68,2.309-5.918C109.263,67.732,111.997,67.574,111.697,71.733z"/>
	<path fill-rule="evenodd" clip-rule="evenodd" fill="#FBFAFB" d="M85.346,73.751c0.124-1.38,1.305-2.016,2.074-2.942   c0.936-1.188,1.972-2.14,3.657-1.537c2.02,1.18,1.17,3.691,2.428,5.225c0.265,0.327,0.513,0.667,0.768,1.001   c0.587,0.842,1.518,1.512,1.398,2.717C89.518,79.769,87.605,78.942,85.346,73.751z"/>
	<path fill-rule="evenodd" clip-rule="evenodd" fill="#30476F" d="M95.67,78.215c-0.898-0.645-2.172-0.9-2.368-2.277   c3.287-1.351,6.394-0.981,9.336,0.974c-0.462,0.624-0.923,1.247-1.385,1.87C99.393,78.593,97.532,78.404,95.67,78.215z"/>
	<path fill-rule="evenodd" clip-rule="evenodd" fill="#1A1617" d="M91.306,70.022c-1.449-0.5-2.668,0.139-3.885,0.788   c0.007-2.839,2.294-3.326,4.27-4.023c6.527-2.302,13.169-2.5,19.884-0.911c0.74,1.937,2.646,3.85,0.122,5.856   c-0.986-3.18-3.444-3.234-6.099-2.867c-0.601,0.605-1.321,0.988-2.153,1.165c-1.356,0.244-2.727,0.198-4.096,0.196   C96.674,69.923,93.964,70.969,91.306,70.022z"/>
	<path fill-rule="evenodd" clip-rule="evenodd" fill="#181415" d="M53.588,69.956c-0.661-0.097-1.321-0.194-1.981-0.292   c-1.947,0.192-3.928-0.29-5.858,0.309c-3.197,0.884-5.996-0.871-8.988-1.341c-1.878,0.395-3.312,1.451-4.429,2.979   c-1.021-1.908-0.356-3.428,1.099-4.766c4.665-2.021,9.62-0.392,14.386-1.142c3.779,0.81,8.33,0.208,9.752,5.332   C56.234,70.706,55.14,69.489,53.588,69.956z"/>
	<path fill-rule="evenodd" clip-rule="evenodd" fill="#E9BAA4" d="M140.492,80.909c-0.666,2.632-1.332,5.264-1.998,7.896   c-0.825-0.675-3.273,3.595-2.857-0.958c0.139-1.523-0.495-2.881-1.39-4.132c-1.107-1.548-3.625-2.151-2.26-5.222   c1.527-3.432,3.894,0.519,5.25-1.003c0.747-2.183-4.273-1.139-2.026-3.879c1.063-1.298,2.531-2.957,4.431-0.795   C141.93,75.303,139.576,78.278,140.492,80.909z"/>
	<path fill-rule="evenodd" clip-rule="evenodd" fill="#4B3D36" d="M140.492,80.909c-2.48-2.467,0.471-5.505-0.851-8.093   c0.294-0.341,0.587-0.682,0.881-1.023C142.465,74.838,141.936,77.875,140.492,80.909z"/>
	<path fill-rule="evenodd" clip-rule="evenodd" fill="#EABAA4" d="M7.503,88.86c-0.668-2.659-1.337-5.317-2.005-7.975   c0.846-2.632-1.4-5.585,0.842-8.07c2.201-2.205,3.732-0.31,4.713,1.173c1.58,2.386-2.529,1.542-2.24,3.463   c1.349,1.672,4.034-2.439,5.162,1.149c0.496,1.576,0.828,2.642-0.818,3.765c-1.841,1.255-3,3.182-2.795,5.485   C10.752,92.266,8.351,88.262,7.503,88.86z"/>
	<path fill-rule="evenodd" clip-rule="evenodd" fill="#4B3D36" d="M6.34,72.815c-1.324,2.581,1.638,5.609-0.842,8.07   c-1.434-3.024-1.988-6.051-0.034-9.087C5.756,72.137,6.048,72.476,6.34,72.815z"/>
	<path fill-rule="evenodd" clip-rule="evenodd" fill="#3A302D" d="M67.304,111.769c8.747-1.847,17.709-0.33,26.583-1.886   c-3.104,3.328-5.43,7.386-10.425,7.838c-0.571-0.326-1.299-0.513-1.237-1.4c0.363-0.956,1.204-1.294,2.06-1.613   c0.815-0.372,1.871-0.414,2.188-1.449c0.029-0.097-0.864-0.047-1.351-0.025c-3.868,0.792-7.72,1.467-11.655,0.604   C71.482,112.939,68.932,113.717,67.304,111.769z"/>
	<path fill-rule="evenodd" clip-rule="evenodd" fill="#2D2A29" d="M82.259,116.735c0.401,0.329,0.803,0.657,1.203,0.985   c-5.934,0.469-11.862,1.029-17.803,1.375c-4.072,0.238-7.778-0.694-10.192-4.429c2.618-1.286,4.591,0.999,6.938,1.232   c3.287,0.782,6.533,0.275,9.819-0.1C75.596,115.416,79.097,114.52,82.259,116.735z"/>
	<path fill-rule="evenodd" clip-rule="evenodd" fill="#2D2E2E" d="M67.304,111.769c2.041,0.459,4.319-0.629,6.189,0.949   c-3.588,2.615-7.949,1.5-11.879,2.472c-2.089-0.056-4.078-0.671-6.1-1.104c-0.562-0.22-1.496-0.313-1.624-0.684   c-0.553-1.604,0.784-1.381,1.666-1.404C59.471,111.894,63.387,111.84,67.304,111.769z"/>
	<path fill-rule="evenodd" clip-rule="evenodd" fill="#F2F2F3" d="M55.513,114.085c1.981-0.082,3.963-0.164,5.945-0.246   c0.833,1.044,0.928,2.09,0.009,3.139c-2-0.771-4-1.541-6.001-2.312C55.588,114.481,55.604,114.288,55.513,114.085z"/>
	<path fill-rule="evenodd" clip-rule="evenodd" fill="#23385B" d="M36.76,68.631c3.29-0.853,6.532,0.623,9.813,0.196   c1.141,0.873,2.12,1.854,2.264,3.391c-0.699,2.636-2.54,2.63-4.673,2.056c-1.53-0.411-3.005-1.612-4.686-0.425   c0,0-0.215,0.22-0.215,0.219C36.855,72.98,40.809,68.963,36.76,68.631z"/>
	<path fill-rule="evenodd" clip-rule="evenodd" fill="#0A67AC" d="M39.479,73.848c0.879-3.353,2.761-1.871,4.375-0.81   c2.048,1.345,3.62,1.312,4.706-1.11c0.316-0.271,0.635-0.286,0.957-0.008c3.242,2.885,0.953,4.102-1.627,4.917   C44.428,77.93,41.885,75.973,39.479,73.848z"/>
	<path fill-rule="evenodd" clip-rule="evenodd" fill="#D5D9E1" d="M49.517,71.92l-0.479-0.061c0,0-0.479,0.068-0.478,0.068   c-1.066-0.773-2.082-1.581-1.987-3.1c1.822-0.582,3.62-1.019,5.034,0.838C50.91,70.416,50.213,71.168,49.517,71.92z"/>
	<path fill-rule="evenodd" clip-rule="evenodd" fill="#0E67AC" d="M102.638,76.912c-3.167,0.193-6.287-0.052-9.336-0.974   l0.128,0.001c-1.314-2.505-0.192-3.798,2.209-4.456c1.888,0.326,3.83,1.402,5.588-0.381c0.884-0.474,1.777-0.847,2.765-0.279   c1.465,1.197,1.419,2.617,0.614,4.148C103.95,75.619,103.294,76.265,102.638,76.912z"/>
	<path fill-rule="evenodd" clip-rule="evenodd" fill="#3C4C6C" d="M104.606,74.972c-0.067-1.429-0.33-2.787-1.414-3.842   c-0.464-0.932-0.303-1.728,0.524-2.375c0.626,0.037,1.253,0.074,1.88,0.111C106.52,71.103,107.244,73.31,104.606,74.972z"/>
	<path fill-rule="evenodd" clip-rule="evenodd" fill="#1D3B60" d="M96.364,72.052c-2.094,0.454-3.258,1.609-2.934,3.888   c-2.611-1.29-2.011-3.732-2.124-5.918c2.541-1.647,5.383-1.233,8.17-1.195c0.252,0.22,0.37,0.466,0.353,0.738   c-0.018,0.286-0.06,0.428-0.123,0.429C98.76,70.95,97.647,71.64,96.364,72.052z"/>
	<path fill-rule="evenodd" clip-rule="evenodd" fill="#EFF0F4" d="M99.35,69.866c0.042-0.347,0.084-0.693,0.126-1.04   c1.405-0.54,2.819-0.54,4.241-0.072c-0.172,0.79-0.345,1.58-0.521,2.373c-0.532,0.259-1.06,0.515-1.589,0.771   C99.889,72.294,99.273,71.464,99.35,69.866z"/>
	<path fill-rule="evenodd" clip-rule="evenodd" fill="#C6D4DC" d="M61.467,116.979c-0.002-1.046-0.005-2.093-0.008-3.139   c4.011-0.374,8.022-0.748,12.034-1.122c4.318-0.196,8.637-0.393,12.955-0.59c0.101,0.794-0.4,1.211-1.003,1.526   c-0.896,0.468-3.183,0.282-0.953,2.136c-0.745,0.315-1.489,0.63-2.233,0.946c-5.235,0.354-10.466,0.81-15.707,1.001   C64.878,117.797,62.946,118.601,61.467,116.979z"/>
	<path fill-rule="evenodd" clip-rule="evenodd" fill="#E7E8E9" d="M84.492,115.79c-3.754-3.574,1.593-2.288,1.956-3.662   c0.948-0.057,1.897-0.115,3.464-0.209C88.001,113.777,86.925,115.685,84.492,115.79z"/>
	<path fill-rule="evenodd" clip-rule="evenodd" fill="#1E2B4E" d="M99.35,69.866c0.752,0.677,1.504,1.354,2.257,2.032   c-1.68,2.348-3.398,3.409-5.243,0.154C96.516,70.171,97.726,69.736,99.35,69.866z"/>
</g>
</svg>